<svg width="95" height="89" viewBox="0 0 95 89" xmlns="http://www.w3.org/2000/svg"><title>arrival</title><g id="Page-1" fill="none" fill-rule="evenodd"><g id="home"><g id="Arrivals-Content"><g id="Arrival"><path d="M82.74 64.418L9.142 36.945c-2.557-.95-4.23-3.23-4.546-5.763H4.59s-.714-5.854-2.554-20.423c-.39-3.092 2.447-3.54 3.947-1.3 2.76 4.116 6.482 9.698 9.945 14.9l15.232 5.685C30.02 21.105 28.467 8.87 27.388.34L33.96 2.79c6.424 12.25 13.448 25.575 18.536 35.217l23.133 8.637C88.404 51.413 92.54 58.403 91.173 62.07c-1.236 3.313-4.147 3.946-8.435 2.348zM27.586 47.816c-1.82-.676-3.84.246-4.52 2.06-.678 1.82.242 3.84 2.06 4.52 1.82.685 3.842-.24 4.522-2.054.68-1.822-.242-3.844-2.063-4.526zm10.3 3.85c-1.82-.68-3.842.246-4.522 2.063-.68 1.815.242 3.843 2.06 4.52 1.822.682 3.844-.242 4.522-2.06.678-1.815-.24-3.84-2.06-4.524zM92.14 82.96c0-1.493-1.208-2.704-2.7-2.704H36.718c-1.492 0-2.703 1.21-2.703 2.703 0 1.49 1.21 2.7 2.703 2.7H89.44c1.492 0 2.7-1.21 2.7-2.7z" id="Shape" fill="#000"/></g></g></g></g></svg>