<svg width="99" height="107" viewBox="0 0 99 107" xmlns="http://www.w3.org/2000/svg"><title>breakfast</title><g id="Page-1" fill="none" fill-rule="evenodd"><g id="home" fill="#000"><g id="BREAKFAST-@-9-AM-+-Check-out-time-from--+-noun_17155_cc"><g id="noun_17155_cc"><path d="M47.82 97.75H62.58c-.48-1.24-.858-2.637-1.153-4.167h-9.967c-1.064 1.478-2.28 2.89-3.644 4.167zM83.422 76.917c0 1.15.933 2.083 2.084 2.083h1.888c.015-1.363.02-2.757.02-4.167h-1.907c-1.152 0-2.085.933-2.085 2.084z" id="Shape"/><path d="M91.965 74.876c-.07-.008-.134-.043-.21-.043h-4.34V72.75c0-1.15-.93-2.083-2.082-2.083H62.417c-1.15 0-2.083.932-2.083 2.083 0 16.77 0 31.25 10.416 31.25H77c4.276 0 6.78-2.468 8.267-6.507-.002.005-.002.01-.004.013 5.595-1.233 12.57-7.178 12.57-14.34 0-4.882-2.296-8.068-5.868-8.29zM77 99.833h-6.25c-5.948 0-6.235-11.373-6.248-25h18.746c-.012 13.627-.3 25-6.248 25zm9.493-7.143c.655-3.917.85-8.606.9-13.69h4.19c1.933 0 2.083 3.19 2.083 4.167 0 4.222-3.782 7.897-7.173 9.523zM54.083 79H49.62c-.79-3.035-3.224-5.412-6.312-6.066-1.443-3.63-7.034-4.232-10.435-4.33-.856-2.43-3.153-4.187-5.874-4.187-2.82 0-5.183 1.888-5.958 4.46-1.95.587-3.483 2.087-4.12 4.016-4.046.548-7.276 2.972-8.3 6.107h-4.54C2.933 79 2 79.932 2 81.083 2 90.1 11.84 104 24.917 104h8.333c13.076 0 22.917-13.9 22.917-22.917 0-1.15-.932-2.083-2.084-2.083zM33.25 99.833h-8.333c-9.24 0-17.147-9.503-18.518-16.666h45.37c-1.374 7.163-9.28 16.666-18.52 16.666z" id="Shape"/><path d="M81.167 37.333c-1.15 0-2.083.932-2.083 2.083V41.5H70.75v-4.167c0-6.54-7.17-11.75-16.666-12.423v-8.793c2.42-.865 4.166-3.156 4.166-5.868C58.25 6.803 55.446 4 52 4s-6.25 2.804-6.25 6.25c0 2.712 1.748 5.003 4.167 5.865v8.795c-8.46.598-15.053 4.806-16.396 10.34H27c-1.152 0-2.083.93-2.083 2.082 0 .513.206.966.513 1.33l7.82 9.82v20.14c1.244.046 2.713.168 4.168.47V39.416h29.167v31.25h4.166v-25h8.335v22.917c0 .717-.096 1.408-.23 2.084h4.225c.098-.678.17-1.37.17-2.084V39.417c0-1.152-.932-2.084-2.083-2.084zm-47.917 4.48l-1.915-2.396h1.915v2.395zM52 8.166c1.15 0 2.084.936 2.084 2.083 0 1.147-.935 2.083-2.084 2.083-1.15 0-2.083-.936-2.083-2.083 0-1.147.933-2.083 2.083-2.083zM37.917 35.25C39.585 31.704 45.35 29 51.997 29h.005c6.65 0 12.413 2.704 14.08 6.25H37.918z" id="Shape"/></g></g></g></g></svg>