<svg width="104" height="45" viewBox="0 0 104 45" xmlns="http://www.w3.org/2000/svg"><title>carcar</title><g id="Page-1" fill="none" fill-rule="evenodd"><g id="home" fill="#000"><g id="LAND-+-Car"><g id="Car"><g id="Layer_2"><path d="M16.524 25.357c-4.213 0-7.63 3.418-7.63 7.63 0 4.214 3.417 7.63 7.63 7.63 4.215 0 7.63-3.416 7.63-7.63 0-4.212-3.416-7.63-7.63-7.63zm0 10.832c-1.778 0-3.22-1.442-3.22-3.22 0-1.78 1.442-3.222 3.22-3.222 1.777 0 3.22 1.442 3.22 3.22-.002 1.78-1.443 3.22-3.22 3.22zM83.53 25.355c-4.215 0-7.632 3.417-7.632 7.63s3.417 7.63 7.632 7.63c4.212 0 7.63-3.417 7.63-7.63s-3.418-7.63-7.63-7.63zm0 10.834c-1.778 0-3.222-1.442-3.222-3.22 0-1.78 1.443-3.222 3.222-3.222 1.78 0 3.223 1.442 3.223 3.22 0 1.78-1.444 3.22-3.223 3.22z" id="Shape"/><path d="M79.23 14.515S60.466 5.765 54.476 4.497C48.49 3.23 27.88 4.382 25.922 5.647l-11.515 5.64-11.282 5.528-1.827 10.65s-.05 6.318.388 7.773h5.527l.07-2.25c0-5.103 4.14-9.24 9.244-9.24 5.103 0 9.238 4.138 9.238 9.24l.158 2.25h48.36l.006-2.83c0-5.103 3.855-8.87 8.958-8.87s9.523 3.768 9.523 8.87l.19 2.616s5.846.33 7.69-.36c0 0 .69-9.788-2.88-13.358-3.167-2.998-9.557-4.866-18.54-6.79zm-52.274 1.38s2.363-5.01 4.943-6.923C33.81 7.345 44.344 7.39 44.344 7.39l.39 9.714-17.78-1.208zM72.613 18.2l-24.698-.978-.577-9.846c9.154-.344 19.576 4.55 25.563 8.06 5.99 3.512-.287 2.764-.287 2.764z" id="Shape"/></g></g></g></g></g></svg>