<svg width="68" height="103" viewBox="0 0 68 103" xmlns="http://www.w3.org/2000/svg"><title>ceremony</title><g id="Page-1" fill="none" fill-rule="evenodd"><g id="home" fill="#000"><g id="SEAL-THE-DEAL-@-5-PM-+-The-ceremony-will-be-+-Ceremony-Icon"><g id="Ceremony-Icon"><g id="Group" transform="translate(4 3)"><circle id="Oval" cx="16.555" cy="7.281" r="6.781"/><circle id="Oval" cx="37.323" cy="11.84" r="6.487"/><path d="M19.302 15.292l-2.167.64c-.022 0-.044.004-.066.007-.12-.154-.28-.25-.455-.25-.188 0-.357.107-.48.28-.05-.023-.103-.037-.16-.037l-2.168-.64c-.21 0-.38.17-.38.38v1.907c0 .21.17.382.38.382l2.167-.607c.062 0 .12-.016.17-.042.123.166.288.268.47.268.17 0 .323-.09.442-.233.026.005.052.008.08.008l2.167.607c.21 0 .382-.17.382-.382v-1.907c0-.21-.172-.38-.383-.38z" id="Shape"/><circle id="Oval" cx="16.555" cy="20.7" r="1.006"/><circle id="Oval" cx="16.555" cy="24.609" r="1.006"/><circle id="Oval" cx="16.555" cy="28.518" r="1.006"/><circle id="Oval" cx="16.555" cy="32.427" r="1.006"/><path d="M37.323.833c-6.39 0-10.055 4.012-10.055 11.007h2.08c0-4.072 1.384-8.927 7.975-8.927 6.592 0 7.976 4.854 7.976 8.927h2.078c0-6.995-3.665-11.007-10.055-11.007zM61.437 90.832L49.033 55.78V20.36H31.455s-.615-3.736-6.51-3.736h-3.778v15.377s-.035 3.537-4.61 3.537c-4.577 0-4.612-3.57-4.612-3.57l-.07-15.343H5.498S.435 16.99.435 21.29v32.176s0 2.185 2.964 2.185 3.275-1.634 3.275-1.634v41.238H18.22s1.483.026 1.483-.884c.806.78 3.368 1.885 5.253 0 .962.65 2.704 2.03 5.07 0 0 0 2.756 2.314 5.07 0 1.275.78 2.34 1.846 5.123.156 1.3.676 3.146 1.716 5.07-.078 1.664.884 2.55 1.846 5.07 0 2.055 1.04 3.355 1.716 5.33-.286 1.612 2.052 6.76 2 5.747-3.33zm-53.69-63.39c-1.244 0-2.252-1.008-2.252-2.253s1.01-2.254 2.253-2.254c1.245 0 2.254 1.01 2.254 2.253 0 1.244-1.01 2.253-2.254 2.253zm50.448 66.45c-.95 0-1.724-.74-1.724-1.65 0-.487.225-.924.576-1.226h.005c0-.496-.655-.897-1.464-.897-.81 0-1.466.4-1.466.896h.01c.354.3.576.738.576 1.227 0 .91-.77 1.65-1.723 1.65-.95 0-1.723-.74-1.723-1.65 0-.49.224-.927.577-1.23h-.007c0-.494-.612-.895-1.365-.895-.754 0-1.365.402-1.365.897h.003c.353.3.575.738.575 1.227 0 .91-.772 1.65-1.724 1.65s-1.724-.74-1.724-1.65c0-.49.225-.927.578-1.23h-.028c-.002-.494-.648-.895-1.446-.895-.798 0-1.445.4-1.446.896h-.006c.354.3.578.74.578 1.23 0 .91-.772 1.648-1.724 1.648s-1.724-.738-1.724-1.648c0-.488.224-.925.575-1.227h.012c0-.496-.628-.897-1.4-.897-.773 0-1.4.402-1.4.897h.018c.353.3.575.738.575 1.227 0 .91-.772 1.65-1.723 1.65-.952 0-1.724-.74-1.724-1.65 0-.49.224-.927.577-1.23h-.006c-.002-.494-.66-.895-1.468-.895-.812 0-1.467.4-1.47.896h-.02c.354.3.577.74.577 1.23 0 .91-.77 1.648-1.723 1.648-.952 0-1.724-.738-1.724-1.648 0-.49.224-.927.578-1.23h-.017c0-.494-.57-.895-1.273-.895-.702 0-1.27.4-1.273.896h-.02c.354.3.578.74.578 1.23 0 .91-.77 1.648-1.723 1.648-.953 0-1.724-.738-1.724-1.648 0-.488.223-.925.575-1.227h.035c0-.496-.69-.897-1.54-.897-.852 0-1.542.402-1.542.897h.008c.353.3.576.738.576 1.227 0 .91-.77 1.65-1.723 1.65-.952 0-1.723-.74-1.723-1.65 0-.49.224-.927.578-1.23h-.02c-.002-.494-.616-.895-1.373-.895-.758 0-1.373.402-1.373.897h.01c.35.3.574.738.574 1.227 0 .912-.77 1.65-1.724 1.65-.95 0-1.723-.74-1.723-1.65 0-.488 2.145-8.075 2.145-8.075l-.017-26.23s-.104-1.108.97-1.108c1.076 0 1.058.954 1.058.954l.208 18.88 9.882-32.73h4.715c4.682-.088 2.775-6.086 2.775-6.086l-4.94-15.064c-.276-.71.14-.728.14-.728h14.51c.607 0 .59.38.59.38l-.035 28.78-5.496-14.425 2.358-6.05s.485-.71-.365-1.04c-.85-.33-1.16.294-1.16.294l-2.41 6.883 19.363 54.14s.198.74.198 1.23c0 .91-.772 1.65-1.723 1.65z" id="Shape"/></g></g></g></g></g></svg>