<svg width="204" height="192" viewBox="0 0 204 192" xmlns="http://www.w3.org/2000/svg"><title>confetti</title><g id="Page-1" fill="none" fill-rule="evenodd"><g id="home" fill="#000"><g id="noun_98497_cc"><path d="M196.438 116.406c-.842-1.406-2.528-1.687-3.932-1.125-5.9 3.376-10.393-.28-18.257-7.03-5.62-4.78-12.08-10.406-20.225-12.094-8.707-1.687-16.29 2.25-21.066 7.594-1.406-.28-2.81-.28-4.214-.28h-.28c-3.372 0-7.023.56-10.394 1.686-2.528-5.062-6.18-10.125-10.673-14.906 5.335-2.53 8.987-8.156 8.987-14.344 0-8.72-7.022-16.03-16.01-16.03-7.584 0-14.045 5.343-15.45 12.374-2.808-1.406-5.617-2.53-8.145-3.375 1.124-1.688 2.528-3.656 4.214-5.625 4.213-4.5 5.617-9.844 3.932-14.906-.28-1.125-.843-2.25-1.685-3.375 2.808-6.19 2.247-12.94.28-17.72 2.528-3.375 4.776-7.313 5.9-12.094.28-1.406-.563-3.094-1.967-3.375-1.405-.28-3.09.564-3.37 1.97-.843 3.094-1.967 5.906-3.652 8.156-1.966-2.53-4.775-4.218-7.303-4.5-8.706-.843-12.92 2.813-14.043 6.75-1.124 3.657.562 7.594 3.932 9.563 3.37 1.968 7.583 1.968 11.796.28 1.405-.563 2.81-1.406 4.213-2.53.56 2.53.842 5.624 0 8.718-1.686-1.126-3.652-1.97-5.618-2.532-4.494-.843-8.708.282-11.516 3.657-1.967 2.25-2.528 5.062-1.686 7.874 1.124 3.094 3.933 5.626 7.303 6.188 2.528.563 7.303.28 12.078-5.063.844 3.094-.28 6.188-2.808 9-2.528 2.813-4.494 5.344-5.898 7.876-2.247-.282-4.213-.563-6.18-.563-5.898 0-10.954 1.97-14.605 5.344-1.687 1.686-3.09 3.936-3.934 6.468L6.562 175.75c-.843 1.97-.562 4.22.562 6.188 1.123 1.968 3.37 2.812 5.336 2.812.843 0 1.686-.28 2.528-.563l60.11-24.75 36.795-15.187c2.528-.844 4.775-2.25 6.46-3.938 6.74-6.75 7.022-18 1.966-30.093 2.527-.845 5.336-1.126 7.864-1.126h.842c-3.932 7.594-3.09 15.75 1.686 21.375 2.81 3.093 6.18 4.218 9.27 4.218 2.808 0 5.617-1.125 7.583-2.813 4.494-3.938 6.74-11.53.56-19.406-2.526-3.095-5.616-5.626-9.268-7.032 3.652-3.094 8.427-4.782 13.764-3.657 6.742 1.407 12.36 6.19 17.696 10.69 7.584 6.468 15.168 12.936 24.718 7.593 1.685-.563 2.247-2.25 1.404-3.657zM72.85 28.936c-1.685.845-4.213 1.408-6.74.002-1.125-.563-1.686-1.97-1.406-3.094.562-1.407 2.247-2.813 6.46-2.813h1.686c1.124 0 2.81 1.126 4.213 3.095-1.404 1.406-2.81 2.25-4.213 2.813zm3.37 17.72c-2.246 2.813-4.774 4.22-7.02 3.657-1.406-.282-2.53-1.126-3.09-2.532-.282-.843 0-1.686.56-2.25 1.405-1.686 3.09-1.968 4.495-1.968.56 0 1.123 0 1.685.282 1.404.28 3.09 1.125 4.213 2.25-.562 0-.842.28-.842.562zM100.658 65.5c5.618 0 10.393 4.5 10.393 10.406 0 5.063-3.932 9.563-8.988 10.125-.562 0-.843.282-1.405.282-.56 0-1.404 0-1.966-.28h-.56c-.562 0-.843-.282-1.405-.563-.28 0-.28-.282-.562-.282-.28-.282-.842-.282-1.123-.563-.28-.28-.562-.28-.562-.563-.28-.28-.562-.28-.843-.562-.28-.28-.56-.563-.842-.844 0-.28-.28-.28-.28-.562-.282-.563-.563-.844-.844-1.406-.563-1.126-.844-2.25-1.124-3.657v-.843c-.28-5.906 4.494-10.687 10.11-10.687zm-32.3 63.563c.28.28.56.562.842.562 1.122.844 2.246 1.97 3.37 2.813l.56.562c1.124.844 1.967 1.406 3.09 2.25.28.28.562.28.562.563 1.124.843 2.247 1.406 3.37 2.25.282.28.563.28.844.562 1.123.563 2.247 1.406 3.37 1.97h.28c1.125.56 2.248 1.124 3.653 1.686 0 0 .28 0 .28.282-24.718-2.812-43.818-16.312-49.436-30.375l2.81-7.03c3.65 5.343 8.987 9.562 15.728 12.937 2.247 2.812 4.494 5.625 7.303 8.437 1.124.564 2.247 1.69 3.37 2.532zm5.617 25.03c-11.517-1.405-37.077-6.468-42.975-22.78l5.054-12.657c9.55 16.594 31.46 26.72 53.087 29.25l-15.166 6.188zm-21.067 8.72c-10.392-.844-23.313-4.782-27.807-17.157l3.09-7.312c7.303 11.812 22.75 17.156 35.953 19.97l-11.236 4.5zm-18.82 7.593c-8.706 0-14.886-3.656-16.01-7.594l4.214-10.125c4.214 7.032 11.236 11.532 20.786 14.063l-8.988 3.656zM50.38 106.28c-2.53-2.25-4.214-4.78-5.9-7.874l1.686-3.937c.843 3.936 2.247 7.874 4.213 11.81zM13.02 179.126c-.562.28-.843 0-1.123-.28-.282-.282 0-.845 0-.845l3.65-8.72c2.247 2.25 5.056 4.22 8.707 5.345l-11.235 4.5zm101.68-42.75c-1.124 1.125-2.81 2.25-4.495 2.813-1.685.562-3.932.843-6.18.843-9.268 0-20.784-5.343-30.896-14.06-.28-.282-.842-.564-1.123-1.126-1.123-.844-1.966-1.97-3.09-2.813l-2.808-2.81c-.282-.282-.563-.845-.844-1.126-.562-.563-1.123-1.125-1.685-1.97-.28-.56-.56-.843-1.123-1.405-.56-.564-.842-1.126-1.404-1.69-.28-.56-.562-.843-.843-1.405-.28-.563-.842-1.125-1.123-1.688-.28-.562-.562-.843-.843-1.406-.562-.56-.843-1.405-1.123-1.968-.28-.28-.28-.562-.56-.843-.563-1.126-1.125-1.97-1.686-3.095 0-.28-.28-.563-.28-.563-.282-.843-.844-1.687-1.125-2.53 0-.282-.282-.563-.282-.844-.28-.844-.562-1.407-.842-2.25 0-.282-.28-.563-.28-.844-.282-.844-.563-1.688-.563-2.25 0-.28 0-.28-.28-.563-.282-.843-.282-1.686-.563-2.53v-.28c-.28-1.97-.28-3.657 0-5.345v-.28c0-.564.28-1.407.28-1.97 0-.28.282-.563.282-.844.562-2.25 1.685-3.936 3.09-5.343 2.528-2.53 5.898-3.656 10.392-3.656 1.124 0 2.247 0 3.37.282-2.527 5.626-2.808 9.563-2.808 10.688 0 1.688 1.124 2.813 2.81 2.813 1.403 0 2.808-1.126 2.808-2.813 0-.563.28-4.5 2.81-9.844 3.65 1.125 7.302 2.53 10.953 4.78.562 2.814 1.685 5.345 3.37 7.595l.282.282c.56.563.84 1.126 1.403 1.407.28 0 .28.28.562.28.56.563 1.123.844 1.685 1.125.28 0 .562.28.562.28.562.282 1.123.564 1.966.845.28 0 .562.28.562.28.842.282 1.404.564 2.247.564h.562c.84 0 1.684.28 2.526.28h.843c4.774 4.782 8.426 10.126 11.234 15.47-7.022 3.094-13.482 8.156-18.538 14.906-.842 1.125-.842 3.094.562 3.938 1.123.843 3.09.843 3.932-.563 4.775-5.906 10.393-10.406 16.572-13.22 4.494 10.407 4.775 19.69-.28 24.47zm29.492-20.25c4.213 5.344 2.81 9.844.28 11.813-2.246 1.968-6.178 2.53-9.268-1.126-4.213-4.78-3.09-11.25-.562-15.75.28-.28.28-.562.562-.843 3.65 1.124 6.74 3.093 8.988 5.905zM170.597 52c5.337 0 9.83-4.5 9.83-9.844 0-5.343-4.493-9.843-9.83-9.843s-9.83 4.5-9.83 9.843c0 5.344 4.212 9.844 9.83 9.844zm0-14.063c2.247 0 4.213 1.97 4.213 4.22s-1.966 4.218-4.213 4.218-4.213-1.97-4.213-4.22 1.685-4.218 4.213-4.218zM101.5 102.344c0-4.22-3.37-7.594-7.584-7.594-4.213 0-7.584 3.375-7.584 7.594 0 4.22 3.37 7.594 7.584 7.594 4.213 0 7.584-3.657 7.584-7.594zm-9.55 0c0-1.125.843-1.97 1.966-1.97 1.124 0 1.966.845 1.966 1.97s-.842 1.97-1.966 1.97c-1.123 0-1.966-1.126-1.966-1.97zm17.415-70.875l9.55 5.06 1.123 10.69c0 1.124.843 1.968 1.686 2.25.28 0 .56.28.842.28.843 0 1.405-.28 1.966-.844l7.865-7.312 10.674 2.25c1.124.28 2.248-.282 2.81-1.125.56-.845.842-1.97.28-2.814l-4.494-9.843 5.337-9.282c.562-.843.562-1.968 0-3.093-.562-.843-1.685-1.406-2.81-1.125l-10.672 1.688-7.302-8.156c-.843-.844-1.686-1.125-2.81-.844-1.123.28-1.684 1.125-1.965 2.25l-1.967 10.688-9.83 4.5c-.843.562-1.686 1.406-1.686 2.53 0 1.126.562 1.688 1.405 2.25zm13.763-4.782c.843-.282 1.404-1.125 1.685-1.97l1.124-6.468 4.494 4.78c.563.564 1.405 1.126 2.53.845l6.46-.844-3.37 5.626c-.563.844-.563 1.688 0 2.532l2.807 5.906-6.46-1.125c-.843-.282-1.966 0-2.528.843l-4.776 4.5-.562-6.47c0-.843-.56-1.687-1.404-2.25l-5.9-3.093 5.9-2.813zm13.482 35.156c-1.123-.282-2.247 0-2.81.562-.84.844-1.122 1.97-.56 2.813l2.247 6.75-4.213 5.624c-.562.844-.843 1.97-.28 3.094.56.843 1.403 1.406 2.527 1.687h7.023l3.932 5.906c.562.845 1.404 1.126 2.247 1.126h.28c1.124-.28 1.967-.844 2.248-1.97l2.247-6.75 6.74-1.967c1.125-.282 1.687-1.126 1.967-2.25.28-1.126-.28-2.25-1.123-2.814l-5.617-4.22.28-7.03c0-1.125-.56-1.968-1.403-2.53-.843-.563-1.966-.282-3.09.28l-5.618 4.22-7.022-2.532zm8.708 7.593l2.247-1.687v2.813c0 .843.28 1.687 1.123 2.25l2.247 1.687-2.81.844c-.84.28-1.684.844-1.965 1.97l-.842 2.81-1.686-2.25c-.56-.843-1.404-1.124-2.247-1.124h-2.81l1.687-2.25c.562-.844.842-1.688.562-2.53l-.843-2.814 2.81.844c.842.28 1.966 0 2.528-.563z" id="Shape"/></g></g></g></svg>