<svg width="229" height="228" viewBox="0 0 229 228" xmlns="http://www.w3.org/2000/svg"><title>giftsgifts</title><g id="Page-1" fill="none" fill-rule="evenodd"><g id="home" fill="#000"><g id="Imported-Layers-Copy-+-Gift"><g id="Imported-Layers-Copy"><path d="M114.5 3C52.92 3 3 52.92 3 114.5S52.92 226 114.5 226 226 176.08 226 114.5 176.08 3 114.5 3zm0 220.77c-60.348 0-109.27-48.922-109.27-109.27C5.23 54.15 54.153 5.23 114.5 5.23S223.77 54.15 223.77 114.5c0 60.348-48.922 109.27-109.27 109.27z" id="Fill-1"/><path d="M119.215 208.882l-.084-2.3-2.3.084.084 2.3 2.3-.084" id="Fill-2"/><path d="M130.146 207.71l-.35-2.276-2.275.348.35 2.277 2.276-.35" id="Fill-3"/><path d="M140.855 205.274l-.614-2.22-2.217.614.612 2.22 2.22-.614" id="Fill-4"/><path d="M151.19 201.61l-.866-2.132-2.133.868.87 2.132 2.13-.868" id="Fill-5"/><path d="M161.058 196.752l-1.11-2.017-2.018 1.11 1.11 2.017 2.018-1.11" id="Fill-6"/><path d="M170.29 190.78l-1.34-1.874-1.873 1.337 1.337 1.874 1.875-1.337" id="Fill-7"/><path d="M178.75 183.796l-1.545-1.708-1.707 1.545 1.544 1.707 1.708-1.544" id="Fill-8"/><path d="M186.364 175.865l-1.73-1.517-1.52 1.73 1.733 1.518 1.517-1.73" id="Fill-9"/><path d="M193 167.124l-1.894-1.308-1.307 1.895 1.893 1.31 1.308-1.896" id="Fill-10"/><path d="M198.586 157.665l-2.034-1.08-1.08 2.034 2.035 1.078 1.08-2.033" id="Fill-11"/><path d="M203.027 147.63l-2.145-.835-.835 2.145 2.145.835.835-2.145" id="Fill-12"/><path d="M206.27 137.134l-2.23-.578-.576 2.228 2.228.578.577-2.228" id="Fill-13"/><path d="M208.268 126.31l-2.282-.315-.313 2.28 2.28.315.315-2.28" id="Fill-14"/><path d="M208.994 115.363l-2.302-.05-.05 2.302 2.302.05.05-2.302" id="Fill-15"/><path d="M208.464 104.394l-2.292.213.214 2.293 2.292-.215-.214-2.29" id="Fill-16"/><path d="M206.667 93.55l-2.25.48.48 2.25 2.25-.48-.48-2.25" id="Fill-17"/><path d="M203.618 82.993l-2.18.74.74 2.18 2.18-.74-.74-2.18" id="Fill-18"/><path d="M199.36 72.875l-2.08.988.99 2.08 2.08-.99-.99-2.078" id="Fill-19"/><path d="M193.944 63.31l-1.95 1.223 1.225 1.95 1.95-1.224-1.226-1.95" id="Fill-20"/><path d="M187.47 54.453l-1.795 1.442 1.44 1.795 1.797-1.442-1.44-1.795" id="Fill-21"/><path d="M180.01 46.396l-1.616 1.64 1.64 1.615 1.615-1.637-1.64-1.617" id="Fill-22"/><path d="M171.657 39.24l-1.417 1.816 1.815 1.417 1.417-1.815-1.815-1.417" id="Fill-23"/><path d="M162.536 33.105l-1.197 1.966 1.966 1.2 1.196-1.968-1.966-1.197" id="Fill-24"/><path d="M152.79 28.08l-.962 2.093 2.093.96.96-2.092-2.09-.96" id="Fill-25"/><path d="M142.498 24.22l-.71 2.19 2.19.708.71-2.19-2.19-.71" id="Fill-26"/><path d="M131.828 21.588l-.447 2.258 2.26.448.447-2.258-2.26-.448" id="Fill-27"/><path d="M120.915 20.217l-.183 2.295 2.295.182.183-2.295-2.295-.183" id="Fill-28"/><path d="M109.955 20.11l.08 2.3 2.3-.08-.08-2.3-2.3.08" id="Fill-29"/><path d="M99.02 21.264l.344 2.276 2.277-.346-.345-2.275-2.275.344" id="Fill-30"/><path d="M88.304 23.68l.608 2.22 2.22-.608-.61-2.22-2.218.61" id="Fill-31"/><path d="M77.94 27.334l.866 2.134 2.134-.865-.865-2.133-2.134.864" id="Fill-32"/><path d="M68.082 32.17l1.108 2.017 2.018-1.107-1.106-2.02-2.02 1.11" id="Fill-33"/><path d="M58.854 38.115l1.334 1.876 1.877-1.332-1.334-1.877-1.876 1.335" id="Fill-34"/><path d="M50.367 45.096l1.542 1.71 1.71-1.54-1.543-1.71-1.71 1.54" id="Fill-35"/><path d="M42.75 53l1.73 1.522 1.52-1.73-1.728-1.52L42.752 53" id="Fill-36"/><path d="M36.088 61.743l1.893 1.312 1.312-1.893-1.893-1.31-1.312 1.89" id="Fill-37"/><path d="M30.48 71.208l2.032 1.082 1.082-2.032-2.032-1.082-1.082 2.032" id="Fill-38"/><path d="M26.023 81.235l2.145.838.838-2.144-2.145-.84-.837 2.145" id="Fill-39"/><path d="M22.765 91.725l2.227.58.582-2.227-2.227-.58-.582 2.227" id="Fill-40"/><path d="M20.754 102.525l2.28.318.318-2.28-2.28-.318-.318 2.28" id="Fill-41"/><path d="M20.008 113.484l2.302.054.052-2.302-2.3-.052-.054 2.3" id="Fill-42"/><path d="M20.52 124.457l2.293-.21-.21-2.293-2.293.21.21 2.293" id="Fill-43"/><path d="M22.296 135.29l2.253-.476-.477-2.252-2.253.475.476 2.252" id="Fill-44"/><path d="M25.328 145.854l2.18-.737-.735-2.18-2.18.735.735 2.182" id="Fill-45"/><path d="M29.577 155.996l2.08-.985-.985-2.08-2.08.986.985 2.08" id="Fill-46"/><path d="M34.96 165.54l1.95-1.22-1.22-1.95-1.952 1.22 1.22 1.95" id="Fill-47"/><path d="M41.44 174.438l1.796-1.44-1.438-1.797L40 172.64l1.44 1.798" id="Fill-48"/><path d="M48.887 182.506l1.62-1.637-1.637-1.62-1.62 1.637 1.637 1.62" id="Fill-49"/><path d="M57.216 189.662l1.42-1.812-1.813-1.42-1.42 1.812 1.813 1.42" id="Fill-50"/><path d="M66.31 195.805l1.202-1.965-1.965-1.2-1.2 1.964 1.963 1.2" id="Fill-51"/><path d="M76.08 200.86l.964-2.09-2.09-.963-.965 2.09 2.09.964" id="Fill-52"/><path d="M86.363 204.738l.713-2.19-2.19-.71-.712 2.187 2.19.713" id="Fill-53"/><path d="M97.026 207.386l.453-2.258-2.26-.45-.45 2.256 2.256.452" id="Fill-54"/><path d="M107.898 208.77l.187-2.293-2.295-.188-.187 2.293 2.295.187" id="Fill-55"/></g><g id="Gift"><text id="GIFTS" font-family="Bebas Neue" font-size="40" letter-spacing="2.353" transform="translate(79 54)"><tspan x="0" y="111">GIFTS</tspan></text><g id="Your_Icon"><path d="M143.452 85.987h-.006v-10.11c0-5.432-4.446-9.877-9.88-9.877h-33.68c-5.433 0-9.878 4.445-9.878 9.878v10.11H90v7.424h.008v16.148c0 5.432 4.445 9.878 9.878 9.878h33.68c5.434 0 9.88-4.446 9.88-9.878V93.417h.003c0-.24 0-5.185.002-7.43zm-9.885-17.353c3.994 0 7.244 3.25 7.244 7.244v10.11H139.096c-.903 0-1.775 0-2.197.008-.275.004-.428-.084-.555-.33-.864-1.664-1.49-3.412-1.873-5.245-.13-.618-.378-.96-1.002-.95-.898.012-1.82.068-2.687.287-2.603.656-4.872 2.016-7.01 3.595-1.022.756-1.978 1.604-2.97 2.4-.148.12-.328.194-.57.333V68.634h13.337zm-40.925 7.244c0-3.994 3.25-7.244 7.244-7.244h12.89V86.074c-.34-.115-.648-.167-.9-.316-.507-.302-.985-.65-1.467-.99-2.81-1.994-6.022-2.99-9.316-3.785-.247-.06-.504-.084-.757-.098-1.386-.075-1.838.17-2.31 1.463-.39 1.074-.663 2.19-1.007 3.282-.045.14-.215.343-.33.343-.88.012-1.76.015-2.65.016h-1.398V75.877zm0 33.682V93.406h9.645c-.328.353-.585.647-.862.923-1.004 1-2.01 1.997-3.03 2.983-.353.343-.375.737-.31 1.185.452 3.124.818 6.255.787 9.42-.006.57-.048 1.14-.078 1.815.162-.092.29-.126.36-.21.593-.723 1.115-1.513 1.774-2.168 2.256-2.248 4.588-4.424 6.837-6.68 1.62-1.623 3.155-3.33 4.727-5l.283-.302v21.43h-12.89c-3.994 0-7.243-3.25-7.243-7.243zm40.925 7.243h-13.334V94.166c1.56 1.818 3.034 3.62 4.602 5.336 1.47 1.61 3.08 3.095 4.56 4.698 1.5 1.627 2.92 3.33 4.372 5l.308.353c.037-.207.073-.333.082-.462.286-3.7.563-7.403.862-11.102.03-.384-.043-.7-.31-.956-1.118-1.086-2.242-2.166-3.367-3.247-.113-.108-.236-.205-.425-.368h9.894v16.143c0 3.994-3.25 7.243-7.245 7.243z" id="Shape"/></g></g></g></g></g></svg>