<svg width="162" height="228" viewBox="0 0 162 228" xmlns="http://www.w3.org/2000/svg"><title>H</title><g id="Page-1" fill="none" fill-rule="evenodd"><g id="home" fill="#B6B6B6"><path d="M148.545 179.02h2.377V181H107.74v-1.98h2.574c3.3 0 6.173-1.156 8.616-3.467 2.444-2.31 3.797-5.184 4.06-8.617v-51.503H46.33v51.7c0 18.49-4.49 30.902-13.47 37.24-4.092 2.907-9.375 5.086-15.846 6.538l-.99-1.782c5.943-3.17 10.334-8.055 13.173-14.658 2.84-6.603 4.26-15.715 4.26-27.336V56.6c0-3.432-1.256-6.338-3.765-8.715-2.51-2.377-5.48-3.565-8.914-3.565H18.4v-1.98h43.184v1.98H59.01c-3.435 0-6.373 1.188-8.816 3.565-2.443 2.377-3.73 5.283-3.863 8.716v52.89h76.66V60.167c.133-16.904 3.897-28.657 11.292-35.26 4.49-3.962 10.565-6.8 18.224-8.518l.99 1.782c-5.942 3.17-10.366 8.056-13.27 14.66-2.906 6.602-4.36 15.714-4.36 27.335V166.54c0 3.433 1.222 6.37 3.666 8.814 2.443 2.444 5.447 3.665 9.013 3.665z" id="H"/></g></g></svg>