<svg width="58" height="104" viewBox="0 0 58 104" xmlns="http://www.w3.org/2000/svg"><title>hanging</title><g id="Page-1" fill="none" fill-rule="evenodd"><g id="home" fill="#000"><g id="HANGING-OUT-@-11-AM-Copy-+-We-will-be-hanging-o-+-Hanging-Out"><g id="Hanging-Out"><g id="Group"><path d="M31.016 39.9c-2.95.42-6.113-3.36-6.113-6.09-.21-3.78 4.216-5.25 7.167-4.62 2.74.63 5.06 3.15 5.27 6.09.21 3.36-3.794 3.99-6.324 4.62-1.475.21-.843 2.73.843 2.31 4.216-.84 8.432-2.73 8.01-7.56-.42-4.62-4.848-7.56-9.065-8.19-4.637-.63-8.22 3.15-8.643 7.35-.42 4.2 4.85 9.03 8.854 8.61 1.687-.21 1.687-2.73 0-2.52zM9.092 26.04c-1.265-2.73-3.162-5.25-2.53-8.19.843-3.36 4.427-4.62 7.38-4.62 3.793 0 7.377 2.73 7.588 6.51.21 2.94-1.476 5.67-4.006 7.14-1.475.84-.21 3.15 1.265 2.31 3.794-2.1 5.27-6.3 5.27-10.5-.21-4.62-4.638-6.93-8.644-7.77-4.216-.84-8.01.84-10.54 4.2-2.952 4.2 0 8.4 1.686 12.39.843 1.47 3.162 0 2.53-1.47z" id="Shape"/><path d="M14.995 11.34V2.73c0-1.68-2.74-1.68-2.74 0 .21 2.94.21 5.67 0 8.61 0 1.68 2.74 1.68 2.74 0zM41.557 25.41c-3.795-1.26-3.373-7.35-1.265-9.87 2.108-2.31 6.324-2.52 9.065-1.89 6.746 1.47 6.324 10.29 1.475 13.44-1.475.84-.21 3.15 1.265 2.31 8.644-5.46 5.27-17.85-4.848-18.69-4.428-.42-9.488 1.89-10.964 6.3-1.475 4.2-.21 9.45 4.217 10.92 2.108.63 2.74-1.89 1.054-2.52z" id="Shape"/><path d="M47.46 12.18c.21-3.36 0-6.93-.422-10.29-.21-1.68-2.74-1.05-2.53.63.422 3.15.633 6.3.422 9.45-.21 1.89 2.53 1.89 2.53.21zM15.838 28.35c0 6.72-1.476 10.71 4.848 14.07 6.536 3.36 12.017 3.15 18.34-.42 5.06-2.94 6.958-5.46 5.904-11.55-.844-4.41 4.638-3.57 5.48-.21.844 2.94.844 6.3.844 9.24 0 5.25-9.276 7.98-13.07 9.66-1.476.63-.21 2.94 1.265 2.31 4.004-1.89 13.7-4.2 14.123-9.87.422-5.04.843-15.33-4.638-18.48-3.794-2.1-7.378.21-7.59 3.99 0 1.26.844 5.04.844 5.67.42 4.2-4.006 6.3-6.747 7.98-4.848 2.73-9.065 1.47-13.492-.63-4.426-2.1-3.582-7.77-3.372-11.76-.21-1.68-2.74-1.68-2.74 0z" id="Shape"/><path d="M37.13 50.4c-.21 10.71 2.95 20.16 6.746 30.03.843 2.1 1.686 4.2 2.32 6.51-2.32 2.52-4.64 4.83-6.958 7.35-.843-1.26-1.476-2.73-2.108-3.99-2.952-6.09-5.06-12.39-5.692-18.9-.21-1.68-2.74-1.68-2.74 0 .42 3.99 6.324 32.34 14.756 28.56 4.638-2.1 7.59-5.67 6.114-10.92-3.795-13.44-10.33-24.78-9.91-38.64 0-1.68-2.528-1.68-2.528 0z" id="Shape"/><path d="M27.854 70.35c-1.265 4.62-2.95 9.24-4.638 13.65-1.265 3.36-2.95 6.72-4.638 10.08-2.108-2.1-4.005-4.41-6.113-6.51.632-1.89 1.265-3.99 2.108-5.88 3.584-9.87 7.59-19.32 8.643-29.82.21-1.68-2.53-1.68-2.74 0C19.422 63.21 14.784 73.5 10.99 84c-1.476 3.99-4.006 11.34 1.053 14.28 11.173 6.51 16.654-21.21 18.552-27.09.21-1.68-2.32-2.31-2.74-.84z" id="Shape"/><path d="M21.53 49.98c-3.162 0-9.908-5.04-10.962-8.19-.633-1.89-.422-5.04-.633-7.14 0-1.26-.21-2.73-.21-3.99-.633-2.94 1.264-3.78 5.48-2.73.21 1.68 2.74 1.05 2.53-.63-.42-2.52-2.32-5.46-5.27-4.83-4.427.84-5.27 4.2-5.27 8.4 0 4.41-.422 10.92 2.53 14.7 2.53 3.15 7.8 7.56 12.016 7.35 1.476-.42 1.476-2.94-.21-2.94z" id="Shape"/></g></g></g></g></g></svg>