<svg width="114" height="116" viewBox="0 0 114 116" xmlns="http://www.w3.org/2000/svg"><title>henna</title><g id="Page-1" fill="none" fill-rule="evenodd"><g id="home" fill="#000"><g id="HENNA-PARTY-@-6:30-P-+-Jennifer’s-family-wi-+-Imported-Layers"><g id="Imported-Layers"><path d="M65.73 2.15c1.42.65 2.238 3.923 0 4.203-.01-.292-.37-.233-.602-.3-.808-1.26.28-2.81.6-3.903" id="Fill-1"/><path d="M71.442 8.453c-.36 1.206-1.798 3.28-3.006 1.802-.56-1.657 1.908-.294 1.803-1.5-1.308-2.318-3.63-.9-3.61 1.2.018 1.79 3.95 4.543 6.013 6.605 3.945 3.937 7.782 7.957 9.022 14.41.03.77 1.173.43 1.202 1.2 7.388-3.072 12.74 7.27 18.943 5.105.695-.242 1.363-.798 1.504-2.1.28-1.007-2.488-.49-1.203-1.502.768-1.444 2.88.637 2.707 2.1.318.16 1.576-.09 1.803.902-.175.623-.63.97-.9 1.5-1.017.015-1.306-.7-1.805-1.2-.433.168-.733.468-.902.9.133 1.57 2.523.883 3.307 1.8.802 1.2.143 3.722-1.503 2.403-.774-.744.203-1.07.602-1.5-.326-.878-1.434-.973-2.708-.902-3.47 5.542-3.18 14.837-8.118 18.915 4.514 4.4 3.954 13.866 9.32 17.413.776-.428 1.703-.704 1.805-1.8-.55-1.472-1.27-.5-2.106 0-.268-.536-.84-.765-.6-1.803 4.097-1.548 4.197 3.72 1.803 5.104.782-.013 4.284-1.464 4.51.9-.166 1.52-3.246.93-3.908.3.05 1.492-1.126 4.15-3.61 3.003-.386-.922-.39-2.623.902-2.702.713.318-.645 1.383.3 1.8 1.093.193 1.18-.62 1.203-1.5-.436-1.554-1.413-1.723-3.006-1.2-5.027 1.644-11.174 8.264-18.343 8.104-.83 8.378-6.847 11.575-7.517 20.114 1.182 2.12 4.81-.06 3.308-2.402-.553.35-.21 1.594-1.503 1.2-.896-1.112.378-2.066.902-2.7 3.63.826 1.353 7.55-2.405 5.403-1.452.063-1.295 2.28-3.01 2.703-4.122 1.016-5.726-4.203-.9-3.903.282.596.98 1.43.3 2.1-1.238.238-.564-1.437-1.803-1.2-1.352.875.202 1.85.9 2.402 1.46-.245 2.276-1.13 3.008-2.102-3.646-7.867-18-5.042-21.048-13.51-3.657 4.29-21.83 1.43-22.25 7.805-.1 1.515 1.19 3.435 2.706 2.102.413-.946-1.974-.583-.902-1.2.278-1.624 2.058-.517 2.406.3-.192 1.81-1.688 2.318-3.91 2.1-.748-.85-1.49-1.714-1.202-3.6-2.19-.056-6.706.53-5.712-3.604.64-1.062 2.442-.964 4.21-.9.16 1.062-.256 1.545-.904 1.8-1.09.29-.305-1.296-.9-1.5-.63.373-1.132.874-1.505 1.5.04 2.476 3.735 2.486 5.112 1.2 1.806-6.123-3.573-11.617-3.61-17.71-.015-2.66 1.33-4.582 1.805-7.506-4.503-1.48-7.237-4.536-10.524-8.107-2.107-2.29-5.184-6.777-7.817-3.602-.29 1.59.567 2.038 1.504 2.402 1.59-.49-1.152-1.174 0-2.1 1.39.012 1.952.85 1.804 2.4-2.952 2.46-6.44-3.075-3.006-4.503-.96-.944-1.842-1.962-2.405-3.302.5-2.993 5.007-3.463 6.013-.6-.002 1.438-2.546 2.204-3.008.6-.193-1.556 1.433.36 1.504-.6-3.477-2.832-4.166 3.878.3 3.303 3.48-.45 8.708-14.358 14.732-15.613-3.803-6.32.02-14.7-.6-23.115-.373-.63-.875-1.13-1.504-1.502-1.138.165-1.74.865-1.804 2.102.37.912 1.033-.327 1.804 0 .195 1.094-.203 1.598-.6 2.1-4.006-.282-2.006-5.634.9-5.704-.563-5.917 8.734-2.94 4.21.902-1.08-.22-2.01-.595-1.803-2.1 1.33-.43.786 1.015 1.803.9.882-1.03-.224-2-.902-2.402-1.367.394-2.305 1.05-2.405 2.1-.495 5.183 9.587 2.585 15.336 2.703 4.633.096 7.732 1.653 9.32 3.303 2.83-7.082 12.33-7.504 13.832-15.91-.45-.352-.736-.87-1.504-.902-.753-.05-.94.46-1.202.9-.385 1.384 1.505.498.902 2.102-1.27.267-1.7-.307-2.105-.9.047-1.655 1.008-2.396 2.104-3.002 1.42-.22 1.976.427 2.705.9 1.708-1.715 4.31-1.762 5.412.6zm-5.713 3.603c-3.517 5.697-11.583 6.85-13.832 13.81-1.918-.07-2.48-1.725-4.21-2.4-5.43-2.124-13.548.99-19.243-.903-.05 7.986-3.39 16.623.3 23.118-6.95 3.267-9.536 10.893-14.732 15.912 5.328 4.286 8.472 10.754 15.635 13.21-4.364 8.504 2.25 16.482 2.104 24.316 5.544-3.67 16.02-2.418 21.65-6.002 2.95 7.96 15.41 6.426 20.746 12.007 1.623-7.586 6.645-11.777 7.817-19.814 9.524 0 12.537-6.497 20.146-8.407-.356-2.002-2.022-3.126-3.006-5.404-1.94-4.496-2.487-10.36-5.713-12.91 4.88-4.335 5.068-13.354 7.82-19.815-7.06-1.56-12.075-6.413-19.846-6.303-2.774-9.238-9.037-14.995-15.635-20.416z" id="Fill-2"/><path d="M65.73 13.858c5.808 6.11 13.076 10.76 14.432 21.316 7.642-2.112 12.46 3.215 18.642 4.502-1.295 7.913-2.384 16.035-8.42 19.214 5.22 3.495 5.52 11.9 9.322 16.81-6.177 2.665-10.375 8.825-20.446 6.606 1.29 8.63-4.08 13.11-6.014 19.515-7.75-2.968-17.4-4.04-19.845-12.308-3.598 5.614-13.83 4.602-20.144 7.506-1.996-7.28-5.993-16.772-1.203-23.718-7.638-1.38-10.74-7.287-15.935-11.108C21 56.66 23.766 49.015 31.452 46.28c-5.272-4.627-2.44-14.027-1.804-21.614 8.464.152 17.797-1.79 22.85 3.302 2.23-6.88 9.99-8.238 13.23-14.11zm0 2.402c-4.22 3.838-17.768 11.518-8.42 17.413 2.174-.877 2.618-1.504 4.21-1.802 8.654-1.624 9.244 9.014 17.138 4.504-.396-10.612-6.81-15.218-12.93-20.114zM52.5 30.37c-1.358-6.114-15.118-4.812-21.048-4.503-2.713 6.656-3.78 24.218 7.216 18.312 1.094-3.91 3.53-6.482 7.517-7.505-.368-1.915-3.062-5.01 0-6.006 1.944.566 1.735 4.04.902 5.704 3.57 1.856 5.974-3.47 5.412-6.004zm-4.812 13.51c-5.212.1-9.18 1.443-12.628 3.3 2.663 3.347 2.163 9.85 5.713 12.31-3.355 2.555-4.28 7.535-5.713 12.01 4.937.373 6.707 3.91 12.628 3.3.915 4.593 4.096 6.92 6.013 10.51 2.386-3.425 8.148-3.477 10.224-7.205 4.012 1.14 8.637-1.415 12.328.3-.25-4.098.756-7.705 0-11.41 2.868-2.84 5-6.415 8.72-8.404-3.32-2.387-4.935-6.48-8.42-8.707 1.7-3.168-1-7.637.303-11.407-4.343.268-10.02-.797-12.63 1.2-2.88-3.027-7.5-4.317-10.524-7.204-1.377 4.35-6.016 6.63-6.012 11.408zm11.426-9.308c1.462 1.63 2.398-.475 3.908-.6 3.213-.265 4.66 2.105 7.217 3.303.25-3.573-8.153-5.927-11.126-2.703zm18.943 7.206c4.516 1.144 6.862 7.375 4.51 12.61 1.268 2.516 3.717 4.204 6.616 3.602 6.236-1.297 6.976-11.496 8.118-17.713-4.956-2.035-18.628-9.55-19.243 1.5zM40.472 43.88c1.596-.11 1.68-1.726 2.105-3.002 1.052-1.853 5.094-.718 5.713-3.003-3.845-.414-7.356 2.047-7.818 6.005zm40.892 4.203c.374 1.53-1.018 3.345.3 4.803 1.48-3.846.035-8.715-3.607-9.307-.086 2.374 2.787 2.373 3.307 4.503zm-49.31 9.907c.424-2.596 3.394-4.453 3.607-6.305.267-2.3-1.247-3.207-2.404-4.803-8.23 2.088-10.69 9.94-15.635 15.31 5.167 3.248 7.1 9.723 15.636 9.607 1.23-1.274 1.008-3.998 1.804-5.705-2.482-2.492-3.604-4.458-3.007-8.105zm3.607 6.604c.932-1.58-.78-2.197-.9-3.6-.226-2.64 2.072-4.478 1.503-6.907-3.626 1.278-3.774 8.646-.602 10.507zm53.22-5.104c-2.746-.14-4.527.684-5.712 2.102.52.48.88 1.122 1.202 1.8 1.64-.71 3.86-4.462 6.014-1.8-1.094 2.01-2.66 3.55-5.713 3.602-.26 5.242-3.397 7.615-7.215 9.307-1.056 5.555 3.032 7.252 6.915 7.207 5.477-.063 10.51-5.455 13.53-6.605-3.186-5.023-3.31-13.104-9.02-15.612zm-7.516 3.903c2.775 4.113-1.87 6.886-3.61 9.307 3.423.02 7.345-6.435 4.21-10.207-.026.473-.765.234-.6.9zM33.556 73c-4.986 6.515-1.752 14.947.3 22.216 7.92-1.067 23.26-2.978 17.14-12.01-7.016 1.447-9.876-3.707-11.125-9.004-1.847-.66-3.5-1.51-6.314-1.202zm16.237 9.006c-.344-1.958-3.428-1.18-4.81-2.1-1.334-1.372-1.827-3.582-3.308-4.804.6 4.217 3.388 7.807 8.118 6.904zm27.662-1.2c-1.435-1.02-6.177-3.3-6.614 0 2.43.577 5.678.336 5.713 3.302-2.135 2.415-5.602-.514-6.916-1.802-1.665 1.743-4.595 2.784-7.817 2.102 1.76 4.594-3.133 7.378-3.608 3.603-.266-2.104 3.36-2.93 2.405-4.502-8.462-.57-6.663 6.852-3.308 10.507 3.814 4.156 11.075 4.25 15.333 6.304 2.288-5.827 7.67-11.258 4.812-19.514zm-16.536 1.5c2.748 2.574 8.256.634 8.717-2.702-2.47 1.31-4.977 3.593-8.718 2.702z" id="Fill-3"/><path d="M24.536 18.66c-1.8-.167-3.388-1.932-3.006-3.3 1.213-.382 4.177 1.302 3.006 3.3" id="Fill-4"/><path d="M63.924 23.465c3.986.824 1.88 6.49 0 8.106-1.112-1.92-1.307-6.306 0-8.105" id="Fill-5"/><path d="M58.512 24.966c2.765.188 4.056 4.21 2.707 6.605-1.69-1.25-3.76-3.606-2.708-6.604" id="Fill-6"/><path d="M70.24 25.566c.87 2.912-.548 6.03-3.31 6.305-.146-3.178.708-6.858 3.31-6.304" id="Fill-7"/><path d="M56.71 28.267c.968 1.034 2.01 1.996 2.103 3.903-2.016 1.382-6.228-3.723-2.104-3.903" id="Fill-8"/><path d="M69.94 33.972c-.377-2.116 1.428-4.275 3.306-5.103 2.183 1.82.003 5.893-3.307 5.102" id="Fill-9"/><path d="M41.073 30.97c2.392.126 3.47 4.046 2.105 6.004-1.645-.87-3.715-3.8-2.105-6.004" id="Fill-10"/><path d="M40.773 38.476c-1.328-.357-4.832-1.58-5.112-3.302-.77-4.743 6.13-.924 5.113 3.302" id="Fill-11"/><path d="M39.27 40.878c-2.57-.212-5.72-.29-6.014-2.103-.613-3.758 6.26-1.398 6.014 2.103" id="Fill-12"/><path d="M80.763 37.575c1.95.423 1.054 3.477.3 4.503-1.62-.036-2.39-4.36-.3-4.503" id="Fill-13"/><path d="M86.175 38.476c.562 2.303-1.187 4.518-3.308 5.103-.854-2.507-.006-5.773 3.308-5.104" id="Fill-14"/><path d="M91.887 41.778c-.527 3.476-3.484 4.526-7.216 4.804 1.383-2.337 3.563-6.697 7.217-4.804" id="Fill-15"/><path d="M38.668 42.38c-.436 1.764-2.634 1.772-4.51 2.1-.407-.694-1.21-.994-.902-2.402 1.322-.972 4.372-.746 5.412.3" id="Fill-16"/><path d="M91.286 49.883c-1.466 1.02-5.515.885-6.313-.6.985-1.637 6.596-3.213 6.313.6" id="Fill-17"/><path d="M32.955 54.087c-2.032.422-5.593-.216-5.413-3.003 2.525-1.712 4.557 1.17 5.413 3.003" id="Fill-18"/><path d="M84.07 51.685c2.626.08 5.952-.54 6.314 1.802-1.247 2.738-7.187.382-6.313-1.802" id="Fill-19"/><path d="M31.752 57.69c-2.695.843-6.278.098-7.216-1.802 1.77-2.985 6.15.248 7.216 1.8" id="Fill-20"/><path d="M30.85 60.39c-1.69 1.277-5.185 2.885-7.216 1.202.09-2.922 5.816-3.04 7.217-1.2" id="Fill-21"/><path d="M8.6 60.993c.26 1.16-.734 1.067-.902 1.8-1.317-.186-2.59-.417-3.308-1.2.53-1.637 3.372-2.456 4.21-.6" id="Fill-22"/><path d="M32.053 63.393c-.49 2.46-3.652 4.61-6.014 3.303.13-2.804 3.736-3.63 6.013-3.303" id="Fill-23"/><path d="M33.556 65.194c.14 2.644.225 5.228-2.705 4.804-.854-2.22.707-4.45 2.706-4.804" id="Fill-24"/><path d="M92.19 66.095c-.07 2.8-6.056 2.705-7.217.9 1.43-1.186 5.366-2.898 7.216-.9" id="Fill-25"/><path d="M84.37 69.998c2.786.722 7.593-.576 8.12 2.402-1.735 3.826-7.137.02-8.12-2.402" id="Fill-26"/><path d="M82.568 72.1c2.336.97 4.605 2.005 4.508 5.404-2.875.663-4.487-2.247-4.508-5.404" id="Fill-27"/><path d="M80.162 73.9c1.7.803 2.88 2.13 2.705 4.804-2.6.247-3.54-2.605-2.705-4.803" id="Fill-28"/><path d="M40.17 77.203c-.82 1.625-3.364 2.984-5.712 2.102-.295-2.72 3.907-3.393 5.713-2.102" id="Fill-29"/><path d="M40.773 80.206c-.91 2.176-2.44 5.057-5.112 4.503-1.026-3.043 2.548-5.092 5.113-4.504" id="Fill-30"/><path d="M43.178 82.607c-.72 3.302-1.39 8.194-5.713 6.905.074-4.13 2.247-6.164 5.713-6.905" id="Fill-31"/><path d="M46.185 83.508c.782 2.533.33 6.3-2.105 6.604-2.004-1.88-.422-6.418 2.105-6.604" id="Fill-32"/><path d="M48.29 84.108c2 .812 3.037 6.827-.602 6.605-1.07-1.754-.72-5.456.602-6.605" id="Fill-33"/><path d="M68.735 84.108c2.31 1.098 5.674 1.14 6.014 4.204-.433.167-.735.468-.903.9-2.99-.416-4.34-2.472-5.112-5.104" id="Fill-34"/><path d="M63.624 85.91c1.897.934 3.424 5.766 1.203 7.206-3.054-.32-2.127-5.26-1.203-7.206" id="Fill-35"/><path d="M70.54 94.015c-3.707-.3-3.412-4.597-4.21-7.806 2.06.59 5.162 4.208 4.21 7.805" id="Fill-36"/><path d="M29.046 103.32c.07 2.073-1.283 2.723-2.706 3.305-.88-1.62.63-4.636 2.706-3.304" id="Fill-37"/><path d="M75.952 109.026c1.497.307 1.512 2.093 1.503 3.903-1.423-.08-1.545-1.46-2.405-2.103-.013-.913.635-1.167.902-1.8" id="Fill-38"/><path d="M63.324 41.778c3.048-3.29 7.818-2.026 12.026-.6.16 3.24 1.636 8.097-.6 10.207 4.234.875 5.488 4.727 8.117 7.206-3.417 1.792-4.402 6.012-8.118 7.505 1.428 3.007.73 7.492-.302 10.508-3.818-.254-7.874 1.583-11.124 0-1.91 3.195-5.295 4.922-9.322 6.004-2.137-2.67-4.444-5.17-5.11-9.307-5.017 1.304-7.73-2.016-10.825-3.602 1.446-3.36 1.003-8.605 4.21-10.208-2.313-2.63-5.437-5.933-3.91-11.407 3.04-1.48 6.83-4.168 10.824-2.103-.656-4.99 3.108-7.81 5.413-10.806 2.983 2.125 7.285 2.933 8.72 6.604zm-8.12-4.503c-1.898 1.205-3.378 2.83-4.51 4.803-.175 2.777.08 5.124 1.204 6.605 1.17.07 1.558-.645 2.405-.9-6.324-5.022 4.368-13.174 6.014-4.804-.823 5.03-8.48.396-3.308-1.802-3.706-1.565-4.35 4.776-.602 5.704 1.206.298 2.67-.802 4.81-.3.51-1.292.952-2.654 1.504-3.904-1.533-2.773-4.385-4.23-7.517-5.403zm12.93 3.302c-3.16.32-7.217 5.508-3.307 6.905-.4-6.812 7.652-7.024 8.42-2.402 1.227 7.402-9.65 3.2-4.512-.6 1.55-.346 1.78.625 2.707.9-.57-1.333-1.036-2.43-2.405-2.4-3.978.087-2.524 7.545 0 9.306 5.978.766 5.746-4.67 5.41-10.208-2.423.163-3.824-1.753-6.313-1.5zM56.71 43.58c.804.487 1.14.69 1.802 0-.034-.766-.056-1.546-.902-1.502.32 1.12-1.127.475-.9 1.5zm12.627 2.7c-.094 1.196.578 1.627 1.803 1.502-.083-.526.847-1.497 0-1.802-.358 1.05-1.028.84-1.803.3zM39.57 48.983c-1.09 6.903 2.797 10.403 8.72 9.307v-2.1c-6.675 2.09-10.127-8.175-2.406-8.408 5.546 1.016.352 9.996-2.105 3.903.2-1 .772-1.63 2.104-1.502.386 1.323-1.44 1.23-.602 2.103 1.27.266 1.7-.307 2.106-.9.053-1.055-1.016-.988-1.203-1.802-1.46.142-2.563.644-3.308 1.5.305 6.285 8.16 3.01 8.12-1.2-.837-.967-1.172-2.434-2.106-3.302-4.064-.917-6.902.806-9.32 2.4zM54 51.385c1.247-.345 1.172.63 2.105.6.164-1.237.99-1.814 1.804-2.4.94.362 1.308 1.295 2.407 1.5.127-.975 1.25-.954 1.503-1.802-3.2-.897-6.5.174-7.818 2.102zm9.922.3c-.573.427-.86 1.14-1.804 1.2-1.064.164-.74-1.063-1.803-.9.02 1.123-.483 1.72-1.203 2.102-2.49.526-3.04-2.856-4.21-.3 1.564.403 4.105 1.218 3.007 3.302h1.505c-1.47-4.637 3.808-2.796 6.012-3.603.604.5 1.398.805 1.504 1.8-.428.073-.505.495-.9.6-1.497.49-1.792-1.125-2.706-.3.05.45-.108 1.11.3 1.202 1.16-.748 3.08.318 3.608 1.2-.187.814-1.256.746-1.203 1.8.4.3.59.81 1.202.9 1.567-4.36-.498-9.23-3.908-10.507-.224.925.825.578.6 1.502zm-1.202.3c-.02-.88-.108-1.692-1.203-1.5-.127 1.025.09 1.71 1.202 1.5zm-6.013.3c.813.187.747 1.254 1.802 1.202.094-.708 1.044-.56.903-1.502-.47-1.596-2.493-1.35-2.706.3zm-5.113 2.103c.876.225 1.49.712 2.104 1.2.81-1.36.55-2.827-.9-3.302-.338.763-.74 1.464-1.203 2.102zm27.06 6.303c2.93-2.48-.45-6.486-2.705-7.504-2.245.06-4.632-.02-6.013.9.216.684.266 1.534.6 2.103 3.793-2.42 9.285.234 8.118 4.5zM65.73 55.29c.084-.785-.11-1.292-.903-1.2-.085.783.11 1.29.902 1.2zM54.602 58.59c-.17 1.53-2.72.686-3.306 1.8 1.014 1.89 1.82 3.99 3.908 4.804-.04-1.26.547-1.677 0-2.7-.926-.225-.578.824-1.504.6-.645-.556-1.525-.88-1.2-2.403.806-.64 1.597-.64 2.404 0 .254-1.438 1.297-1.97 2.706-1.5v-1.8c-1.814.747-3.058-.164-3.91-1.2-1.028 1.177 1.37.856.903 2.4zm-3.607-.9c.523.022.935-.068 1.202-.3.09-.792-.416-.985-1.202-.902v1.2zm23.152 7.504c2.295-.06 3.473-3.85 3.91-3.902-1.228.147-1.31 1.273-2.406 1.2-5.022-.33-2.335-7.98.6-3.3-.673.798-1.506-.425-2.104.298.3 2.256 3.893.994 3.007-1.5-3.52-3.15-7.84.442-7.518 4.802 2.717-.097 2.427 2.46 4.51 2.402zm-13.83-7.505c-.447 1.746 1.044 1.558 2.404 1.5.488 1.014 1.664 1.34 1.503 3.002-.85-.248-.778.423-1.503.3.385.918 1.124 1.48 1.503 2.403.715-.99 2.008-1.398 2.105-3.003-1.254.174-2.2-.958-1.503-1.8-1.168-.436-2.424-.783-2.105-2.702-.968-.066-1.272.53-2.405.3zm3.606 1.2c.235.067.594.008.6.3.848-.056 1.283-.52 1.205-1.5-.726.12-.654-.55-1.505-.3-.25.347-.396.805-.3 1.5zm-12.026 0c.618.623 1.525 0 1.503-.9-.943-.143-1.228.374-1.502.9zm-6.616 9.607c4.79.33 5.134-6.438 2.406-8.706-6.466-1.626-7.533 5.185-7.517 9.908 3.167 5.253 16.324 1.024 10.826-4.504-.288 6.172-9.424 5.442-9.02.6.088-1.074 1.654-3.616 3.607-3.602 5.687.04.095 9.31-1.202 3.002 1.347-.443.925.88 2.105.6-.006-.893.03-1.828-.902-1.8-1.49-.115-2.513 3.637-.3 4.503zm13.23-6.605c.53-.172 1.767.364 1.805-.3-.664-.037-.128-1.273-.3-1.8H58.51c.314.85.314 1.25 0 2.1zm-2.104 1.802c.597.003.382.818 1.202.6-.164-.436.352-1.552-.3-1.502-.033.568-.994.21-.902.902zm2.104.9c.87-.132 1.372-.633 1.504-1.5-.407-.095-.575-.428-1.203-.302-.346.355-.34 1.063-.3 1.802zM73.246 74.5c4.43-4.683-3.03-14.035-6.014-8.405 4.294.96 5.366 3.057 4.81 6.005-.866 4.612-7.793 2.966-7.817-.3-.04-5.316 9.132-2.246 3.61.6-.894-.764.764-1.464 0-2.1-1.08-.178-1.456.347-2.106.598-.1 2.164 2.372 2.807 4.21 2.102 2.874-4.728-5.2-7.716-7.518-3.902.844 1.31 1.23 4.163.6 6.004 2.79 1.862 7.766 1.042 10.224-.6zM57.31 66.396c1.764-.138 4.3.49 4.81-.9-1.222-1.174-4.276-.703-4.81.9zM50.393 73c-.842 3.443 2.47 5.47 4.21 7.806 6.267.406 9.203-6.684 6.013-12.01h-2.105c2.372 3.476.94 8.36-2.104 9.008-2.584.55-4.876-1.035-4.81-3.602.086-3.438 5.716-4.746 6.012-.6-.59 1.03-2.2 2.58-3.007.9-.642-1.543 1.532-.274 1.203-1.502-3.23-1.968-2.968 3.537 0 3.303 3.8-.3 2.37-8.048-1.503-8.707.143 2.712-3.404 3.337-3.91 5.404z" id="Fill-39"/></g></g></g></g></svg>