<svg width="404" height="85" viewBox="0 0 404 85" xmlns="http://www.w3.org/2000/svg"><title>home</title><g id="Page-1" fill="none" fill-rule="evenodd"><g id="home"><g id="Header"><g id="Jacob-&amp;-Jennifer-Black"><g id="Group-Copy-6-+-&amp;"><path d="M162.22 10.918h-.814c-4.986 0-9.01 4.032-9.01 9.006v1.315l-1.218.49c-4.623 1.87-6.84 7.115-4.976 11.73l.604 1.493-1.083 1.083c-3.526 3.526-3.516 9.22.002 12.74l1.418 1.417-.69 1.792c-1.785 4.655.54 9.854 5.185 11.637l.76.29v.743c0 4.986 4.032 9.007 9.008 9.007h1.04l.39.963c1.866 4.623 7.112 6.843 11.724 4.98l1.42-.574 1.14 1.14c3.526 3.526 9.222 3.52 12.74.003l1.357-1.358 1.872.72c4.654 1.785 9.855-.537 11.637-5.18l.266-.693h.813c4.986 0 9.01-4.033 9.01-9.007V63.34l1.218-.492c4.623-1.868 6.84-7.114 4.976-11.727l-.604-1.494 1.083-1.083c3.525-3.525 3.515-9.22-.003-12.74l-1.418-1.416.688-1.793c1.786-4.655-.54-9.854-5.184-11.637l-.76-.29v-.743c0-4.986-4.032-9.006-9.008-9.006h-1.04l-.39-.964c-1.866-4.623-7.112-6.843-11.724-4.98l-1.42.575-1.14-1.14c-3.526-3.527-9.222-3.52-12.74-.003l-1.357 1.357-1.872-.718c-4.655-1.787-9.856.536-11.638 5.18l-.266.692z" id="Rectangle-26" fill="#000"/><text id="&amp;" font-family="Great Vibes" font-size="53.101" fill="#FFF" transform="translate(140.54 -1)"><tspan x="23.753" y="61.106">&amp;</tspan></text></g><text id="Jacob" font-family="Arizonia" font-size="51.453" fill="#000" transform="translate(11 -1)"><tspan x="0" y="50.836">Jacob</tspan></text><text id="Jennifer" font-family="Arizonia" font-size="51.453" fill="#000" transform="translate(11 -1)"><tspan x="232.898" y="51.527">Jennifer</tspan></text></g></g></g></g></svg>