<svg width="111" height="97" viewBox="0 0 111 97" xmlns="http://www.w3.org/2000/svg"><title>pool</title><g id="Page-1" fill="none" fill-rule="evenodd"><g id="home" fill="#000"><g id="POOL-PARTY-@-11-AM-+-Its-fall-but-it-will-+-Pool"><g id="Pool"><path d="M53.335 62.634c-3.67 0-6.63-1.657-8.33-4.67-2.983-5.273-2.063-9.13-.765-11.437 2.2-3.91 7.14-6.136 10.67-6.246l.32-.004c1.99 0 8.686.725 11.247 10.042.596 2.17.03 4.536-1.59 6.663-2.54 3.33-7.29 5.654-11.552 5.654zM55.23 44.43c-2.183.066-5.842 1.422-7.368 4.134-1.126 2-.87 4.476.76 7.356.96 1.698 2.545 2.56 4.712 2.56 2.955 0 6.5-1.728 8.246-4.02.578-.758 1.203-1.9.89-3.044-1.733-6.305-5.64-6.985-7.24-6.985z" id="Shape"/><path d="M91.776 65.234c-.376-.17-.87-.43-1.457-.743-2.927-1.54-7.816-4.117-12.903-4.117h-.05c-5.608.02-9.51 1.407-12.95 2.635-3.063 1.09-5.954 2.12-9.813 2.12-4.31 0-7.262-1.06-10.386-2.18-3.5-1.26-7.123-2.56-12.718-2.58h-.047c-5.003 0-10 2.764-12.604 4.46-3.696 2.393-6.915 6.47-5.92 9.63.204.645 1.133 2.755 4.425 2.633 2.744-.096 4.955-1.24 6.906-2.25 1.602-.827 2.983-1.543 4.347-1.555 3.51-.063 8.948 1.187 10.937 2.465 2.64 1.698 1.657 9.132 1.288 11.93-.126.956-.21 1.683-.21 2.065h4.154c0-.286.082-.82.175-1.52.593-4.49 1.698-12.847-3.158-15.972-2.982-1.917-9.254-3.094-13.226-3.124-2.354.023-4.315 1.037-6.214 2.02-1.714.885-3.332 1.725-5.143 1.785-.1.01-.19.004-.26 0 .25-.88 1.514-2.91 4.234-4.67 3.656-2.378 7.397-3.742 10.27-3.742h.033c4.88.017 8.012 1.143 11.33 2.334 3.32 1.192 6.755 2.427 11.79 2.427 4.577 0 7.946-1.2 11.205-2.362 3.433-1.222 6.673-2.378 11.57-2.394h.037c4.058 0 8.38 2.276 10.964 3.64.68.356 1.25.657 1.682.852 4.612 2.086 5.57 3.957 5.602 4.204-.09.11-.76.5-2.404.394-2.286-.146-4.773-1.16-7.178-2.143-2.912-1.187-5.908-2.397-8.954-2.32-4.035.125-7.456 4.09-9.294 6.218-3.604 4.174-3.29 9.85-3.142 12.578.02.366.04.67.04.9h4.154c0-.287-.02-.668-.045-1.127-.13-2.352-.37-6.73 2.137-9.636 1.32-1.53 4.068-4.713 6.277-4.78 2.166-.062 4.63.944 7.255 2.016 2.715 1.107 5.52 2.252 8.48 2.442 4.24.276 6.207-1.61 6.67-3.46.37-1.487.342-5.347-7.89-9.07z" id="Shape"/><path id="Rectangle-path" d="M5 66.686h12.29v4.155H5zM93.977 66.686h10.75v4.155h-10.75z"/><path d="M81.282 38.482c-2.87 0-6.998-1.1-10.382-6.347-2.67-4.137-3.47-7.875-2.374-11.11 1.704-5.04 7.477-7.117 9.647-7.898 5.648-2.03 11.685.13 15.104 5.236 2.335 3.485 2.995 7.572 1.72 10.667-1.87 4.546-7.647 9.452-13.715 9.452zm1.31-21.997c-.98 0-1.996.186-3.013.55-1.656.598-6.058 2.18-7.118 5.322-.67 1.974-.02 4.506 1.927 7.526 1.902 2.948 4.222 4.443 6.892 4.443 4.15 0 8.534-3.625 9.873-6.878.73-1.774.196-4.496-1.33-6.774-.843-1.26-3.238-4.19-7.233-4.19zM81.844 10.926c-1.148 0-2.078-.93-2.078-2.078v-2.77c0-1.147.93-2.078 2.078-2.078 1.148 0 2.077.93 2.077 2.078v2.77c0 1.148-.927 2.078-2.076 2.078zM70.128 15.254c-.565 0-1.13-.23-1.54-.684l-3.444-3.808c-.77-.85-.704-2.165.146-2.935s2.165-.705 2.935.147l3.444 3.81c.77.85.703 2.164-.147 2.934-.398.358-.898.536-1.395.536zM64.214 26.173H60.33c-1.147 0-2.077-.93-2.077-2.078 0-1.148.93-2.078 2.078-2.078h3.884c1.148 0 2.078.93 2.078 2.078 0 1.148-.93 2.078-2.078 2.078zM65.873 40.806c-.58 0-1.16-.244-1.57-.717-.75-.87-.658-2.18.21-2.932l3.6-3.117c.862-.75 2.178-.658 2.93.21.75.87.657 2.18-.21 2.932l-3.6 3.116c-.393.342-.878.508-1.36.508zM81.844 48.917c-1.148 0-2.078-.93-2.078-2.077v-5.442c0-1.147.93-2.078 2.078-2.078 1.148 0 2.077.93 2.077 2.078v5.442c0 1.148-.927 2.077-2.076 2.077zM98.934 40.014c-.25 0-.502-.045-.747-.14l-3.975-1.53c-1.07-.412-1.605-1.614-1.193-2.685.413-1.072 1.62-1.602 2.686-1.193l3.975 1.53c1.072.412 1.606 1.614 1.194 2.685-.32.824-1.107 1.332-1.94 1.332zM98.93 25.123c-1.065 0-1.973-.816-2.066-1.898-.1-1.143.747-2.15 1.892-2.25l3.988-.345c1.154-.13 2.15.748 2.248 1.89.1 1.143-.746 2.15-1.89 2.25l-3.99.345c-.06.006-.12.008-.18.008zM93.56 14.735c-.273 0-.55-.054-.814-.167-1.056-.45-1.548-1.67-1.098-2.725l1.4-3.29c.45-1.055 1.667-1.548 2.725-1.097 1.055.45 1.548 1.67 1.098 2.725l-1.4 3.29c-.337.79-1.103 1.265-1.91 1.265zM104.726 79.9c-1.34 1.43-7.205 7.04-17.04 7.393-2.782.1-4.808-.47-6.096-1.68-1.437-1.354-1.495-3.12-1.497-3.17 0-.932-.62-1.75-1.514-2-.894-.252-1.85.12-2.337.912-.042.07-4.524 7.136-17.256 7.323-1.538.028-2.732-.378-3.603-1.224-1.685-1.644-1.734-4.476-1.734-4.492 0-.954-.647-1.783-1.57-2.017-.925-.23-1.885.19-2.336 1.03-.042.077-4.346 7.795-16.36 6.708-6.584-.593-7.218-5.202-7.267-5.7-.063-.857-.644-1.582-1.463-1.833-.815-.252-1.708.026-2.24.695-.034.045-3.47 4.322-8.105 5.51-2.934.747-7.17-2.534-9.31-4.56v5.434c2.8 2.07 6.673 4.09 10.34 3.15 3.273-.838 5.99-2.755 7.817-4.368 1.46 2.634 4.436 5.324 9.856 5.81.93.082 1.82.123 2.678.123 7.398 0 12.113-2.918 14.804-5.432.436.988 1.062 2 1.96 2.885 1.68 1.656 3.942 2.474 6.594 2.436 9.4-.14 15.075-3.614 18.058-6.28.382.672.887 1.36 1.557 2.01 2.13 2.053 5.255 3.024 9.17 2.88 7.885-.28 13.554-3.446 16.894-6v-5.545z" id="Shape"/></g></g></g></g></svg>