<svg width="228" height="226" viewBox="0 0 228 226" xmlns="http://www.w3.org/2000/svg"><title>schedule</title><g id="Page-1" fill="none" fill-rule="evenodd"><g id="home"><g id="Schedule-Badge-2"><path d="M218.306 122.32l7.02-6.514-6.36-6.588 5.993-7.11-7.565-6.126 5.18-8.06-7.776-4.785 4.033-8.37-8.872-4.063 3.018-9.106-8.7-2.695 1.824-9.094-9.625-1.734.66-9.59-9.08-.444-.496-9.242-9.765.716-1.75-9.473-8.895 1.824-2.77-8.804-9.29 3.123-4.062-8.763-8.157 3.977-4.857-7.816-8.22 5.337-6.133-7.5-6.914 5.884-6.63-6.344-6.63 7.21-7.828-5.756L90.42 9.84l-7.975-4.484-4.625 8.622-9.036-3.64-3.233 8.51-8.815-2.352-2.33 9.483-9.68-1.28-1.018 9.066-9.103-.086.1 9.742-9.713 1.17 1.274 9.058-8.822 2.178 2.513 9.385-9.13 3.553 3.497 8.483-7.996 4.298 4.755 8.44-7.963 5.715 5.513 7.37-6.673 6.15 6.685 6.973-6.29 7.516 7.192 5.785-4.938 7.62 8.188 5.078-4.222 8.836 8.43 3.825-2.892 8.62 9.17 2.876-1.886 9.595 9.133 1.612-.656 9.085 9.58.503.557 9.743 9.262-.712 1.626 8.985 9.395-1.89 2.954 9.273 8.803-2.995 3.82 8.32 8.625-4.166 5.153 8.226 7.782-5.09 5.788 7.13 7.318-6.182 7.017 6.666 6.267-6.862 7.403 5.485 5.556-7.815 8.43 4.698 4.36-8.194 8.557 3.48 3.443-8.966 9.31 2.45 2.18-9.004 9.177 1.247 1.108-9.562 9.606.057-.13-9.24 9.22-1.076-1.308-9.563 9.3-2.33-2.413-8.892 8.672-3.34-3.655-8.96 8.422-4.568-4.536-7.987 7.574-5.396-5.786-7.793zm-2.622 19.637l-8 4.338 3.47 8.514-8.238 3.172 2.294 8.447-8.837 2.213 1.243 9.084-8.758 1.023.122 8.776-9.124-.052-1.052 9.084-8.72-1.185-2.07 8.553-8.844-2.326-3.272 8.518-8.13-3.308-4.14 7.785-8.01-4.463-5.277 7.425-7.03-5.21-5.956 6.518-6.665-6.333-6.954 5.873-5.5-6.775-7.39 4.837-4.897-7.815-8.193 3.96-3.63-7.907-8.363 2.846-2.806-8.81-8.924 1.798-1.546-8.536-8.8.677-.528-9.257-9.1-.478.624-8.63-8.678-1.532 1.794-9.115-8.713-2.732 2.746-8.188-8.007-3.633 4.01-8.394-7.777-4.824 4.69-7.24-6.835-5.495 5.977-7.14-6.35-6.623 6.34-5.842-5.238-7 7.565-5.43-4.518-8.02 7.596-4.083-3.32-8.06 8.672-3.375-2.388-8.915 8.38-2.07-1.208-8.605 9.228-1.11-.095-9.256 8.646.082.967-8.612 9.197 1.215 2.214-9.008 8.375 2.234 3.07-8.083 8.586 3.457 4.395-8.19 7.576 4.257L96.56 7.93l7.435 5.47 6.3-6.85 6.298 6.025 6.57-5.588 5.824 7.125 7.81-5.07 4.616 7.426 7.75-3.78 3.858 8.327 8.825-2.97 2.632 8.366 8.45-1.734 1.662 9 9.278-.68.47 8.78 8.627.422-.626 9.11 9.142 1.645-1.732 8.64 8.266 2.56-2.866 8.652 8.428 3.86-3.833 7.95 7.39 4.545-4.923 7.658 7.186 5.82-5.695 6.754 6.043 6.258-6.668 6.19 5.497 7.404-7.196 5.126 4.31 7.587z" id="Fill-1" fill="#000"/><path d="M114 17.807c-53.126 0-96.193 43.067-96.193 96.193S60.874 210.193 114 210.193s96.193-43.067 96.193-96.193S167.126 17.807 114 17.807" id="Fill-2" fill="#000"/><path d="M115.657 46.71l5.668-5.74-.948-.962-5.668 5.742-.21-.212-.2.203-5.467-5.537-.966.98 5.466 5.537L94 66.308V76h16.4l4.1-11.77L118.6 76H135v-9.692L115.657 46.71" id="Fill-3" fill="#FFF"/><path d="M128.996 184.14l-4.454-4.453c-.582.424-2.68.324-2.73.304l-6.552-6.546 10.898-10.883c.11 1 .637 1.886 1.176 2.56.12-1.985.467-4.112 1.58-6.127-2.036 1.093-4.173 1.546-6.133 1.58.582.535 1.55 1.066 2.54 1.18l-10.882 10.87-10.817-10.81c.997-.116 1.972-.65 2.557-1.19-1.973-.033-4.122-.49-6.173-1.59 1.12 2.03 1.47 4.17 1.59 6.17.544-.68 1.072-1.572 1.184-2.576l10.83 10.822-6.364 6.355c-.05.02-2.135.12-2.714-.3l-4.427 4.42c.936.723 2.423.82 3.84-.012-.817 1.46-.71 2.82-.008 3.836l4.426-4.42c-.415-.548-.363-2.552-.31-2.685l6.382-6.374 6.568 6.566c.054.135.106 2.153-.313 2.703l4.455 4.45c.706-1.02.813-2.393-.01-3.862 1.427.84 2.924.74 3.864.01" id="Fill-4" fill="#FFF"/><path d="M73.277 99.76c3.21 0 4.86 1.92 4.86 5.28v.66h-3.12v-.87c0-1.5-.6-2.07-1.65-2.07-1.05 0-1.65.57-1.65 2.07 0 4.32 6.45 5.13 6.45 11.13 0 3.36-1.68 5.28-4.92 5.28s-4.92-1.92-4.92-5.28v-1.29h3.12v1.5c0 1.5.66 2.04 1.71 2.04 1.05 0 1.71-.54 1.71-2.04 0-4.32-6.45-5.13-6.45-11.13 0-3.36 1.65-5.28 4.86-5.28" id="Fill-5" fill="#FFF"/><path d="M89.626 113.17v2.79c0 3.36-1.68 5.28-4.92 5.28s-4.92-1.92-4.92-5.28v-10.92c0-3.36 1.68-5.28 4.92-5.28s4.92 1.92 4.92 5.28v2.04h-3.12v-2.25c0-1.5-.66-2.07-1.71-2.07-1.05 0-1.71.57-1.71 2.07v11.34c0 1.5.66 2.04 1.71 2.04 1.05 0 1.71-.54 1.71-2.04v-3h3.12" id="Fill-6" fill="#FFF"/><path d="M94.936 121h-3.3v-21h3.3v9h3.75v-9h3.36v21h-3.36v-9h-3.75v9" id="Fill-7" fill="#FFF"/><path d="M107.746 108.85h4.53v3h-4.53V118h5.7v3h-9v-21h9v3h-5.7v5.85" id="Fill-8" fill="#FFF"/><path d="M115.486 100h5.22c3.3 0 4.92 1.83 4.92 5.19v10.62c0 3.36-1.62 5.19-4.92 5.19h-5.22v-21zm3.3 3v15h1.86c1.05 0 1.68-.54 1.68-2.04v-10.92c0-1.5-.63-2.04-1.68-2.04h-1.86z" id="Fill-9" fill="#FFF"/><path d="M130.876 100v16.2c0 1.5.66 2.04 1.71 2.04 1.05 0 1.71-.54 1.71-2.04V100h3.12v15.99c0 3.36-1.68 5.28-4.92 5.28s-4.92-1.92-4.92-5.28V100h3.3" id="Fill-10" fill="#FFF"/><path d="M139.666 100h3.3v18h5.43v3h-8.73v-21" id="Fill-11" fill="#FFF"/><path d="M153.135 108.85h4.53v3h-4.53V118h5.7v3h-9v-21h9v3h-5.7v5.85" id="Fill-12" fill="#FFF"/><path d="M67.954 129.995h4.763v1.4h-1.61v8.405h-1.542v-8.405h-1.61v-1.4" id="Fill-13" fill="#FFF"/><path d="M74.436 129.995h1.54v9.805h-1.54v-9.805z" id="Fill-14" fill="#FFF"/><path d="M81.41 136.956l1.05-6.96h2.143v9.804h-1.456v-7.03l-1.065 7.03h-1.457l-1.148-6.934v6.934h-1.345v-9.805h2.143l1.135 6.96" id="Fill-15" fill="#FFF"/><path d="M88.31 134.127h2.116v1.4H88.31v2.872h2.662v1.4H86.77v-9.805h4.202v1.4H88.31v2.732" id="Fill-16" fill="#FFF"/><path d="M95.744 129.995h4.762v1.4h-1.61v8.405h-1.542v-8.405h-1.61v-1.4" id="Fill-17" fill="#FFF"/><path d="M102.1 132.348c0-1.57.826-2.465 2.34-2.465 1.512 0 2.338.896 2.338 2.465v5.098c0 1.57-.826 2.466-2.34 2.466-1.512 0-2.338-.896-2.338-2.466v-5.098zm1.54 5.197c0 .7.308.967.8.967.49 0 .797-.267.797-.967v-5.295c0-.7-.308-.967-.798-.967-.492 0-.8.267-.8.967v5.295z" id="Fill-18" fill="#FFF"/><path d="M113.58 139.8h-1.54v-9.805h1.54v4.202h1.75v-4.202h1.57v9.805h-1.57v-4.202h-1.75v4.202" id="Fill-19" fill="#FFF"/><path d="M124.054 139.8H122.5l-.267-1.78h-1.89l-.267 1.78h-1.415l1.57-9.805h2.255l1.57 9.805zm-3.516-3.11h1.484l-.742-4.96-.742 4.96z" id="Fill-20" fill="#FFF"/><path d="M127.79 137.993l1.177-7.998h1.415l-1.513 9.805h-2.298l-1.513-9.805h1.554l1.177 7.998" id="Fill-21" fill="#FFF"/><path d="M133.684 134.127h2.115v1.4h-2.116v2.872h2.662v1.4h-4.202v-9.805h4.202v1.4h-2.662v2.732" id="Fill-22" fill="#FFF"/><path d="M143.105 134.35h1.99v1.402h-1.99v4.048h-1.54v-9.805h4.077v1.4h-2.537v2.956" id="Fill-23" fill="#FFF"/><path d="M148.902 129.995v7.564c0 .7.308.952.798.952.49 0 .8-.253.8-.953v-7.565h1.455v7.466c0 1.57-.784 2.466-2.297 2.466-1.513 0-2.297-.897-2.297-2.465v-7.465h1.542" id="Fill-24" fill="#FFF"/><path d="M155.426 132.698v7.102h-1.387v-9.805h1.932l1.583 5.87v-5.87h1.373v9.805h-1.583l-1.92-7.102" id="Fill-25" fill="#FFF"/><path d="M164 136h21v-2h-21v2zm-121 0h21v-2H43v2z" id="Fill-26" fill="#FFF"/></g></g></g></svg>