<svg width="104" height="63" viewBox="0 0 104 63" xmlns="http://www.w3.org/2000/svg"><title>sleephotel</title><g id="Page-1" fill="none" fill-rule="evenodd"><g id="home" fill="#000"><g id="sleep-+-SLEEP"><g id="Sleep-Icon"><path d="M93.67 45.76v15.537h8.202V38.07H10.14V4.463c0-2.248-1.803-4.088-4.077-4.088C3.813.376 2 2.216 2 4.464v56.833h8.14V45.76h83.53z" id="Shape"/><path d="M22.66 20.845c4.077 0 7.373-3.296 7.373-7.385 0-4.063-3.296-7.36-7.372-7.36-4.075 0-7.372 3.297-7.372 7.36 0 4.088 3.296 7.385 7.373 7.385z" id="Shape"/><path d="M102 31.96l-.025-10.144c-.026-3.22-2.734-5.443-5.878-5.826l-57.912-5.776c-.115-.025-.217-.077-.32-.077-2.005 0-3.627 1.635-3.627 3.628v10.938H19.096c-2.032 0-3.654 1.636-3.654 3.63 0 2.018 1.623 3.628 3.654 3.628H102z" id="Shape"/></g></g></g></g></svg>